<svg width="385" height="60" viewBox="0 0 385 60" fill="none" xmlns="http://www.w3.org/2000/svg">
<path d="M20.5752 23.8071C20.5752 26.4683 21.8691 27.7988 24.457 27.7988C27.7529 27.7988 31.2197 26.2363 34.8574 23.1113C36.9814 21.2803 38.4463 19.6323 39.252 18.1675C40.0576 16.6782 40.4971 15.665 40.5703 15.1279C40.668 14.3223 40.79 13.9194 40.9365 13.9194C41.1807 13.9194 41.3027 14.3589 41.3027 15.2378C41.3027 16.0923 41.083 17.1177 40.6436 18.314C40.2041 19.4858 39.5938 20.6089 38.8125 21.6831C38.0557 22.7573 37.1646 23.7583 36.1392 24.686C35.1382 25.5894 34.0518 26.3828 32.8799 27.0664C30.4141 28.4824 28.1191 29.1904 25.9951 29.1904C23.8711 29.1904 22.2598 28.7632 21.1611 27.9087C20.0625 27.0298 19.5132 25.8091 19.5132 24.2466C19.5132 22.6597 19.9648 21.085 20.8682 19.5225C21.7959 17.96 23.1143 16.4707 24.8232 15.0547C28.4854 12.0029 33.2217 9.78125 39.0322 8.38965C42.4746 7.6084 46.8813 7.21777 52.2524 7.21777C54.0103 7.21777 56.1099 7.36426 58.5513 7.65723C63.2632 8.21875 66.4614 8.49951 68.146 8.49951C69.855 8.49951 71.4175 8.34082 72.8335 8.02344C74.2495 7.70605 75.5068 7.25439 76.6055 6.66846C78.7295 5.54541 80.3774 3.98291 81.5493 1.98096C81.8179 1.56592 82.0742 1.3584 82.3184 1.3584C82.5625 1.3584 82.6846 1.43164 82.6846 1.57812C82.6846 1.84668 82.5747 2.10303 82.355 2.34717C78.4243 8.62158 72.1499 11.7588 63.5317 11.7588C61.4565 11.7588 58.8198 11.5635 55.6216 11.1729C49.4204 10.416 45.3433 10.0376 43.3901 10.0376C41.437 10.0376 39.5327 10.2329 37.6772 10.6235C35.8462 10.9897 34.0884 11.5024 32.4038 12.1616C30.7192 12.8208 29.1567 13.6021 27.7163 14.5054C26.2759 15.3843 25.0186 16.3364 23.9443 17.3618C21.6982 19.5347 20.5752 21.6831 20.5752 23.8071ZM6.03662 52.2617C6.03662 52.7988 5.8291 53.2505 5.41406 53.6167C4.99902 53.9829 4.47412 54.166 3.83936 54.166C3.18018 54.166 2.64307 54.0439 2.22803 53.7998V53.9829C2.22803 55.1548 2.93604 56.1313 4.35205 56.9126C5.71924 57.6694 7.19629 58.0479 8.7832 58.0479C10.3701 58.0479 11.7373 57.938 12.8848 57.7183C14.0566 57.4985 15.2651 57.0957 16.5103 56.5098C17.7554 55.9238 19.0493 55.1182 20.3921 54.0928C21.7593 53.043 23.1875 51.7002 24.6768 50.0645C27.8262 46.6465 31.1709 41.959 34.7109 36.002C34.7842 35.8555 34.8452 35.7578 34.894 35.709C26.6421 37.54 20.6973 40.1035 17.0596 43.3994C15.9854 44.3516 15.2773 45.1328 14.9355 45.7432C14.4473 46.5732 14.1177 46.9883 13.9468 46.9883C13.7759 46.9883 13.6904 46.9272 13.6904 46.8052C13.6904 46.5122 13.7759 46.2681 13.9468 46.0728C14.8745 43.8511 17.3281 41.6172 21.3076 39.3711C25.3848 37.1006 30.1577 35.3916 35.6265 34.2441C35.6997 34.2441 35.7607 34.2319 35.8096 34.2075C39.8379 27.9087 44.5498 22.8672 49.9453 19.083C54.4375 15.9336 58.1851 14.3589 61.188 14.3589C61.7495 14.3589 62.0303 14.4443 62.0303 14.6152C62.0303 14.7861 61.9326 14.896 61.7373 14.9448C61.542 14.9692 60.9194 15.1401 59.8696 15.4575C58.8442 15.7505 57.5503 16.3975 55.9878 17.3984C54.4253 18.3994 52.8262 19.6445 51.1904 21.1338C47.8701 24.1855 44.6597 28.0796 41.5591 32.8159C45.0015 31.937 47.5771 31.1924 49.2861 30.582C49.7988 30.2402 50.2139 29.752 50.5312 29.1172C51.5078 29.1172 52.6187 29.1904 53.8638 29.3369C55.1333 29.4834 55.8779 29.5933 56.0977 29.6665C53.2656 30.9604 50.6777 33.3408 48.334 36.8076C47.5771 37.9062 47.0522 38.8096 46.7593 39.5176C46.4907 40.2256 46.3076 40.6162 46.21 40.6895C46.1367 40.7627 46.0391 40.7993 45.917 40.7993C45.624 40.7993 45.4775 40.6284 45.4775 40.2866C45.4775 39.7495 45.9048 38.5532 46.7593 36.6978C47.6138 34.8179 48.3462 33.4141 48.9565 32.4863C47.98 32.8037 46.7227 33.1333 45.1846 33.4751L40.4971 34.5005C38.1777 38.5776 35.5776 42.3618 32.6968 45.853C29.8159 49.3442 27.1426 52.0176 24.6768 53.873C20.1113 57.3154 14.9722 59.0366 9.25928 59.0366C7.06201 59.0366 5.12109 58.5117 3.43652 57.4619C1.6543 56.3633 0.763184 55.106 0.763184 53.6899C0.763184 52.1763 1.50781 51.2119 2.99707 50.7969C3.41211 50.6992 3.81494 50.6504 4.20557 50.6504C4.59619 50.6504 4.99902 50.7847 5.41406 51.0532C5.8291 51.3218 6.03662 51.7246 6.03662 52.2617ZM67.9995 59.0732C65.5581 59.0732 64.3374 58.3164 64.3374 56.8027C64.3374 55.5576 65.0454 53.9951 66.4614 52.1152L68.7686 49.1855L68.4023 49.0391C64.3008 54.0928 60.4312 57.2666 56.7935 58.5605C55.7925 58.9023 54.9258 59.0732 54.1934 59.0732C51.1904 59.0732 49.689 57.4741 49.689 54.2759C49.689 50.5161 51.1904 46.9272 54.1934 43.5093C58.6367 38.3335 63.1045 35.2695 67.5967 34.3174C68.9395 34.0488 70.0869 33.9146 71.0391 33.9146C71.9912 33.9146 72.7358 33.9878 73.2729 34.1343C73.8345 34.2563 74.3228 34.4395 74.7378 34.6836C75.6167 35.2451 76.0562 35.9409 76.0562 36.771C76.0562 37.5767 75.9097 38.3457 75.6167 39.0781L79.2056 34.647C79.8647 34.8423 80.4751 34.9399 81.0366 34.9399C82.4771 34.9399 83.5146 34.8911 84.1494 34.7935L71.8081 49.6616C68.8784 53.0796 67.4136 55.4844 67.4136 56.876C67.4136 57.6572 67.8774 58.0479 68.8052 58.0479C69.7329 58.0479 70.7949 57.7671 71.9912 57.2056C73.2119 56.644 74.4204 55.9238 75.6167 55.0449C76.813 54.166 77.9727 53.1895 79.0957 52.1152C80.2432 51.041 81.293 49.9912 82.2451 48.9658C83.2217 47.9404 84.0762 46.9883 84.8086 46.1094L86.5664 44.1318L87.3354 44.7544L85.4678 46.8784C78.4365 55.0083 72.6138 59.0732 67.9995 59.0732ZM57.8555 45.8896C54.4131 50.0645 52.6919 53.4824 52.6919 56.1436C52.6919 57.3643 53.2412 57.9746 54.3398 57.9746C57.9043 57.9746 63.0435 54.0317 69.7573 46.146L72.8335 42.4473C74.2983 40.2256 75.0308 38.6143 75.0308 37.6133C75.0308 35.9043 74.1763 35.0498 72.4673 35.0498C70.1479 35.0498 66.8154 37.0273 62.4697 40.9824C60.9805 42.3496 59.4424 43.9854 57.8555 45.8896ZM97.626 52.2617C97.9189 52.3105 98.2852 52.335 98.7246 52.335C99.1885 52.335 99.7378 52.1641 100.373 51.8223C101.007 51.4805 101.654 51.041 102.313 50.5039C102.997 49.9668 103.668 49.3809 104.328 48.7461C104.987 48.0869 105.585 47.4644 106.122 46.8784C106.684 46.2681 107.172 45.7188 107.587 45.2305L108.429 44.1318L109.235 44.7544C108.942 45.0474 108.563 45.4502 108.1 45.9629L106.562 47.7207C103.168 51.3828 100.482 53.2139 98.5049 53.2139H97.8823C97.687 53.2139 97.4917 53.1895 97.2964 53.1406C95.2456 57.6084 90.8877 59.8423 84.2227 59.8423C81.3174 59.8423 79.2056 59.1465 77.8872 57.7549C77.3257 57.1445 77.0449 56.3633 77.0449 55.4111C77.0449 54.459 77.2769 53.6533 77.7407 52.9941C78.1802 52.3105 78.7051 51.749 79.3154 51.3096C80.5605 50.4062 81.6836 49.9546 82.6846 49.9546C83.6611 49.9546 84.1494 50.4185 84.1494 51.3462C84.0762 51.981 83.5391 52.457 82.5381 52.7744C82.2207 52.8721 81.9155 52.9209 81.6226 52.9209C81.3052 52.9209 81.0122 52.8232 80.7437 52.6279C80.4507 52.4082 80.2188 52.2495 80.0479 52.1519C79.9014 52.2983 79.7183 52.4692 79.4985 52.6646C79.2544 52.8599 79.0225 53.0918 78.8027 53.3604C78.2656 54.0195 77.9971 54.7031 77.9971 55.4111C77.9971 56.0947 78.229 56.644 78.6929 57.0591C79.1567 57.4741 79.7061 57.7915 80.3408 58.0112C81.293 58.353 82.2939 58.5239 83.3438 58.5239C84.3691 58.5239 85.4312 58.3042 86.5298 57.8647C87.6528 57.4253 88.7515 56.6929 89.8257 55.6675C92.7798 52.8599 94.3789 48.6973 94.623 43.1797C94.7695 39.4688 95.2212 36.5635 95.978 34.4639C96.0024 34.3906 96.0146 34.2808 96.0146 34.1343L87.3721 44.7544C86.8838 45.3403 86.5298 45.7188 86.3101 45.8896C86.0659 46.0605 85.9438 46.146 85.9438 46.146C85.6509 46.1704 85.4556 46.0972 85.3579 45.9263C85.3091 45.8042 85.4189 45.5723 85.6875 45.2305C91.9863 37.7109 95.5264 33.4385 96.3076 32.4131C96.6982 30.5088 97.333 29.5566 98.2119 29.5566C98.627 29.5566 98.9688 29.6665 99.2373 29.8862C99.5303 30.106 99.6768 30.3867 99.6768 30.7285C99.6523 31.1924 99.2739 31.8516 98.5415 32.7061C97.8335 33.5361 97.394 34.0732 97.2231 34.3174C97.0767 34.5371 96.979 34.7324 96.9302 34.9033C96.8813 35.0498 96.8569 35.1963 96.8569 35.3428V35.7822C96.8325 36.4414 96.8936 37.2227 97.04 38.126L97.9556 44.2051C98.4927 47.5254 98.3828 50.2109 97.626 52.2617ZM103.998 58.3042C103.339 58.1821 102.606 58.1211 101.801 58.1211C100.409 58.1211 99.2617 58.2432 98.3584 58.4873L138.898 0.589355C140.534 0.833496 142.23 0.833496 143.988 0.589355L107.66 51.0166L107.843 51.4194C109.699 49.271 111.42 47.3667 113.007 45.7065L117.365 41.312C119.855 38.895 121.869 37.186 123.407 36.1851C125.727 34.6714 127.924 33.9146 129.999 33.9146C132.172 33.9146 133.539 34.6958 134.101 36.2583C135.199 39.2856 131.769 45.0718 123.81 53.6167L122.382 55.1914C121.601 56.0703 121.21 56.7417 121.21 57.2056C121.21 57.4497 121.479 57.6572 122.016 57.8281C122.553 57.9746 123.31 58.0479 124.286 58.0479C125.263 58.0479 126.41 57.7427 127.729 57.1323C129.047 56.4976 130.329 55.7041 131.574 54.752C132.819 53.7998 134.003 52.75 135.126 51.6025C136.249 50.4551 137.25 49.3687 138.129 48.3433C139.032 47.3179 139.789 46.4146 140.399 45.6333C141.01 44.8521 141.425 44.3516 141.645 44.1318L142.45 44.7544C142.206 45.0229 141.754 45.5601 141.095 46.3657C140.46 47.1714 139.667 48.1113 138.715 49.1855C137.787 50.2354 136.725 51.3462 135.529 52.5181C134.357 53.6899 133.1 54.752 131.757 55.7041C128.681 57.9502 125.885 59.0732 123.371 59.0732C121.369 59.0732 119.892 58.5239 118.939 57.4253C118.646 57.0835 118.5 56.6807 118.5 56.2168C118.5 55.7529 118.561 55.228 118.683 54.6421C118.83 54.0317 119.171 53.2627 119.708 52.335C120.954 50.2354 122.602 48.0381 124.652 45.7432C126.703 43.4238 128.058 41.8491 128.717 41.019C129.376 40.189 129.901 39.4688 130.292 38.8584C131.024 37.6865 131.391 36.7832 131.391 36.1484C131.391 35.2695 130.817 34.8301 129.669 34.8301C128.131 34.8301 126.361 35.5137 124.359 36.8809C119.501 40.1279 113.837 45.7798 107.367 53.8364L103.998 58.3042ZM160.797 25.8945C160.456 26.2119 160.065 26.4683 159.625 26.6636C159.186 26.8345 158.686 26.9199 158.124 26.9199C157.562 26.9199 157.074 26.7124 156.659 26.2974C156.269 25.8579 156.073 25.3696 156.073 24.8325C156.073 24.2954 156.171 23.8193 156.366 23.4043C156.562 22.9893 156.83 22.623 157.172 22.3057C157.88 21.5732 158.649 21.207 159.479 21.207C160.333 21.207 160.956 21.439 161.347 21.9028C161.762 22.3423 161.969 22.8306 161.969 23.3677C161.969 23.9048 161.859 24.3809 161.64 24.7959C161.444 25.2109 161.164 25.5771 160.797 25.8945ZM137.543 56.9126C137.543 57.6694 138.263 58.0479 139.704 58.0479C141.144 58.0479 142.499 57.7183 143.769 57.0591C145.062 56.3999 146.356 55.582 147.65 54.6055C148.969 53.6045 150.238 52.5181 151.459 51.3462L154.755 48.0503C155.731 47.0249 156.537 46.146 157.172 45.4136C157.807 44.6567 158.185 44.2173 158.307 44.0952L159.04 44.7544C158.795 44.9985 158.332 45.5234 157.648 46.3291C156.989 47.1104 156.159 48.0381 155.158 49.1123C154.157 50.1621 153.034 51.2729 151.789 52.4448C150.543 53.6167 149.237 54.6909 147.87 55.6675C144.721 57.938 141.962 59.0732 139.594 59.0732C138.08 59.0732 136.872 58.8047 135.968 58.2676C135.065 57.7061 134.613 57.0713 134.613 56.3633C134.613 55.6553 134.687 55.0205 134.833 54.459C134.979 53.8975 135.248 53.2261 135.639 52.4448C136.029 51.6636 136.579 50.748 137.287 49.6982C137.97 48.6484 138.874 47.3911 139.997 45.9263C141.095 44.4614 142.438 42.7646 144.025 40.8359L149.665 34.1709C149.958 34.2441 150.556 34.2808 151.459 34.2808H153.18C153.815 34.2808 154.328 34.2563 154.718 34.2075C146.637 43.8511 142.096 49.3442 141.095 50.687C140.07 52.0054 139.313 53.043 138.825 53.7998C137.97 55.0938 137.543 56.1313 137.543 56.9126ZM174.53 53.104C173.627 53.104 172.968 52.7378 172.553 52.0054C169.647 55.3013 166.51 57.4863 163.141 58.5605C162.018 58.9023 160.919 59.0732 159.845 59.0732C158.795 59.0732 157.892 58.9512 157.135 58.707C156.378 58.4629 155.756 58.1211 155.268 57.6816C153.29 55.9727 153.095 53.0308 154.682 48.856C155.292 47.2202 156.085 45.6943 157.062 44.2783C158.014 42.8623 159.088 41.5562 160.285 40.3599C161.505 39.1392 162.812 38.0527 164.203 37.1006C167.353 34.9766 170.429 33.9146 173.432 33.9146C174.726 33.9146 175.836 34.2563 176.764 34.9399C177.716 35.5991 178.229 36.5635 178.302 37.833C178.375 39.0781 178.302 40.25 178.083 41.3486C177.863 42.4473 177.533 43.5459 177.094 44.6445C176.215 46.8906 174.97 49.0146 173.358 51.0166C173.529 51.7246 173.993 52.0786 174.75 52.0786C175.531 52.0786 176.264 51.9077 176.947 51.5659C177.655 51.1997 178.351 50.7603 179.035 50.2476C179.743 49.7104 180.426 49.1245 181.085 48.4897C181.769 47.8306 182.392 47.208 182.953 46.6221L184.345 45.084C184.735 44.6201 185.016 44.3027 185.187 44.1318L185.993 44.7544C185.675 45.0474 185.272 45.4624 184.784 45.9995C184.296 46.5366 183.747 47.1104 183.136 47.7207C183.136 47.7207 182.489 48.3555 181.195 49.625C178.681 51.9443 176.459 53.104 174.53 53.104ZM159.333 57.6816C159.723 57.877 160.272 57.9746 160.98 57.9746C162.567 57.9746 164.606 57.0835 167.096 55.3013C169 53.9341 170.697 52.3594 172.187 50.5771V50.4307C172.187 48.3555 172.968 46.793 174.53 45.7432C174.945 45.4502 175.336 45.2427 175.702 45.1206C176.874 42.6304 177.423 40.5918 177.35 39.0049C177.204 36.4902 176.276 35.2329 174.567 35.2329C171.686 35.2329 167.646 38.48 162.445 44.9741C159.101 49.1733 157.526 52.4448 157.721 54.7886C157.721 56.1313 158.258 57.0957 159.333 57.6816ZM186.249 58.3042C185.59 58.1821 184.857 58.1211 184.052 58.1211C182.758 58.1211 181.623 58.2432 180.646 58.4873L193.354 40.3232C194.94 38.1016 195.758 36.7832 195.807 36.3682C195.905 35.5625 195.648 35.1597 195.038 35.1597C194.135 35.1597 191.889 37.3936 188.3 41.8613L185.956 44.7544C185.761 44.8521 185.553 44.8032 185.333 44.6079C185.138 44.3882 185.089 44.2295 185.187 44.1318C185.895 43.375 186.688 42.4229 187.567 41.2754C188.471 40.1035 189.411 38.9805 190.387 37.9062C192.78 35.2451 194.77 33.9146 196.356 33.9146C199.042 33.9146 199.896 35.2939 198.92 38.0527C198.725 38.6387 198.297 39.3955 197.638 40.3232L189.948 51.0166L190.131 51.4194C196.283 44.6812 200.653 40.2256 203.241 38.0527C205.707 36.002 207.538 34.8057 208.734 34.4639C209.955 34.0977 210.944 33.9146 211.701 33.9146C212.482 33.9146 213.141 34.0244 213.678 34.2441C214.24 34.4639 214.691 34.7446 215.033 35.0864C215.668 35.7212 215.973 36.4902 215.949 37.3936C215.949 38.2725 215.778 39.1758 215.436 40.1035C215.119 41.0312 214.569 42.1299 213.788 43.3994C212.152 46.0117 209.394 49.4175 205.512 53.6167C203.9 55.3013 203.058 56.29 202.985 56.583C202.912 56.8516 202.875 57.0591 202.875 57.2056C202.875 57.7671 203.62 58.0479 205.109 58.0479C206.623 58.0479 208.026 57.7427 209.32 57.1323C210.639 56.4976 211.92 55.7041 213.166 54.752C214.435 53.7998 215.631 52.7622 216.754 51.6392C217.902 50.4917 218.927 49.4053 219.831 48.3799C220.734 47.3301 221.491 46.4268 222.101 45.6699C222.711 44.8887 223.126 44.376 223.346 44.1318L224.115 44.7544C223.871 45.0229 223.432 45.5601 222.797 46.3657C222.162 47.1714 221.369 48.0991 220.417 49.1489C219.489 50.1987 218.427 51.3096 217.23 52.4814C216.059 53.6533 214.813 54.7275 213.495 55.7041C210.419 57.9502 207.636 59.0732 205.146 59.0732C202.948 59.0732 201.422 58.5239 200.568 57.4253C200.299 57.0835 200.165 56.6807 200.165 56.2168C200.165 55.7529 200.226 55.228 200.348 54.6421C200.495 54.0317 200.824 53.2627 201.337 52.335C202.484 50.3574 204.108 48.1846 206.208 45.8164C208.332 43.4482 209.723 41.8491 210.382 41.019C211.042 40.189 211.566 39.4688 211.957 38.8584C212.689 37.6865 213.056 36.7832 213.056 36.1484C213.056 35.2695 212.47 34.8301 211.298 34.8301C208.881 34.8301 204.889 37.5645 199.323 43.0332C196.515 45.7676 193.292 49.3687 189.655 53.8364L186.249 58.3042ZM249.86 52.6279C249.86 53.165 249.652 53.6167 249.237 53.9829C248.822 54.3491 248.297 54.5322 247.663 54.5322C247.028 54.5322 246.503 54.4102 246.088 54.166V54.3491C246.088 55.3989 246.698 56.3145 247.919 57.0957C249.14 57.8281 250.629 58.1943 252.387 58.1943C254.169 58.1943 255.805 57.8892 257.294 57.2788C258.808 56.6685 260.224 55.8384 261.542 54.7886C262.86 53.7144 264.105 52.457 265.277 51.0166C266.474 49.5762 267.621 48.0381 268.72 46.4023C269.818 44.7666 270.893 43.0576 271.942 41.2754L275.934 34.8301C270.001 34.6348 265.204 33.4629 261.542 31.3145C257.709 29.0684 255.915 26.2363 256.159 22.8184C256.281 20.6455 257.074 18.6436 258.539 16.8125C260.004 14.957 261.908 13.3457 264.252 11.9785C269.257 9.12207 275.177 7.69385 282.013 7.69385C284.821 7.69385 286.896 8.02344 288.239 8.68262C288.605 8.87793 288.788 9.04883 288.788 9.19531C288.788 9.31738 288.666 9.37842 288.422 9.37842C288.202 9.37842 288.007 9.36621 287.836 9.3418C287.689 9.29297 287.372 9.21973 286.884 9.12207C285.199 8.73145 283.49 8.53613 281.757 8.53613C280.023 8.53613 278.217 8.70703 276.337 9.04883C274.481 9.36621 272.699 9.83008 270.99 10.4404C269.281 11.0508 267.682 11.7954 266.193 12.6743C264.728 13.5532 263.446 14.542 262.348 15.6406C260.004 18.0332 258.759 20.6577 258.612 23.5142C258.441 26.0044 259.833 28.2383 262.787 30.2158C266.181 32.5107 270.758 33.7437 276.52 33.9146C284.992 20.5356 292.743 12.2959 299.774 9.19531C302.069 8.19434 304.132 7.69385 305.963 7.69385C309.577 7.69385 311.31 9.20752 311.164 12.2349C311.017 14.8228 309.613 17.7158 306.952 20.9141C302.533 26.2119 296.771 30.1426 289.667 32.7061C287.201 33.6094 284.65 34.2319 282.013 34.5737L277.802 40.8359C271.234 50.3574 264.911 56.1313 258.832 58.1577C257.001 58.7681 255.243 59.0732 253.559 59.0732C251.874 59.0732 250.507 58.9512 249.457 58.707C248.432 58.4385 247.553 58.0723 246.82 57.6084C245.355 56.6562 244.623 55.4722 244.623 54.0562C244.623 52.5425 245.38 51.5781 246.894 51.1631C247.284 51.0654 247.675 51.0166 248.065 51.0166C248.456 51.0166 248.847 51.1509 249.237 51.4194C249.652 51.688 249.86 52.0908 249.86 52.6279ZM282.709 33.5483C289.545 32.4009 295.673 29.4468 301.093 24.686C304.34 21.8296 306.659 18.9609 308.051 16.0801C309.589 12.8818 309.711 10.6357 308.417 9.3418C307.929 8.85352 307.099 8.62158 305.927 8.646C304.779 8.67041 303.412 9.14648 301.825 10.0742C300.238 11.002 298.578 12.3447 296.845 14.1025C293.549 17.3984 289.704 22.5376 285.309 29.52C283.893 31.6929 283.026 33.0356 282.709 33.5483ZM287.763 56.876C287.763 57.6084 288.349 57.9868 289.521 58.0112C290.692 58.0356 291.864 57.7793 293.036 57.2422C294.232 56.7051 295.417 56.0215 296.588 55.1914C297.76 54.3613 298.896 53.4336 299.994 52.4082C301.093 51.3584 302.118 50.3208 303.07 49.2954C304.022 48.27 304.877 47.3057 305.634 46.4023L307.538 44.1318L308.344 44.7544L306.439 46.9517C299.628 55.0327 293.903 59.0732 289.264 59.0732C287.921 59.0732 286.92 58.8047 286.261 58.2676C285.578 57.7305 285.236 57.1445 285.236 56.5098C285.236 55.875 285.272 55.3501 285.346 54.9351C285.395 54.52 285.517 54.0684 285.712 53.5801C285.907 53.0674 286.2 52.4692 286.591 51.7856C286.957 51.1021 287.458 50.272 288.092 49.2954L293.805 41.0557L303.253 27.7622H300.36C299.628 27.7622 299.262 27.5913 299.262 27.2495C299.262 26.8833 299.726 26.7002 300.653 26.7002H303.986L310.761 17.1787C312.47 17.4473 314.167 17.4473 315.851 17.1787L308.783 26.7002H318.231C318.915 26.7002 319.257 26.8833 319.257 27.2495C319.257 27.5913 318.952 27.7622 318.341 27.7622H307.978L292.816 48.3799C290.204 52.0664 288.715 54.3369 288.349 55.1914C287.958 56.0459 287.763 56.6074 287.763 56.876ZM323.798 53.104C322.895 53.104 322.235 52.7378 321.82 52.0054C318.915 55.3013 315.778 57.4863 312.409 58.5605C311.286 58.9023 310.187 59.0732 309.113 59.0732C308.063 59.0732 307.16 58.9512 306.403 58.707C305.646 58.4629 305.023 58.1211 304.535 57.6816C302.558 55.9727 302.362 53.0308 303.949 48.856C304.56 47.2202 305.353 45.6943 306.33 44.2783C307.282 42.8623 308.356 41.5562 309.552 40.3599C310.773 39.1392 312.079 38.0527 313.471 37.1006C316.62 34.9766 319.696 33.9146 322.699 33.9146C323.993 33.9146 325.104 34.2563 326.032 34.9399C326.984 35.5991 327.497 36.5635 327.57 37.833C327.643 39.0781 327.57 40.25 327.35 41.3486C327.13 42.4473 326.801 43.5459 326.361 44.6445C325.482 46.8906 324.237 49.0146 322.626 51.0166C322.797 51.7246 323.261 52.0786 324.018 52.0786C324.799 52.0786 325.531 51.9077 326.215 51.5659C326.923 51.1997 327.619 50.7603 328.302 50.2476C329.01 49.7104 329.694 49.1245 330.353 48.4897C331.037 47.8306 331.659 47.208 332.221 46.6221L333.612 45.084C334.003 44.6201 334.284 44.3027 334.455 44.1318L335.26 44.7544C334.943 45.0474 334.54 45.4624 334.052 45.9995C333.563 46.5366 333.014 47.1104 332.404 47.7207C332.404 47.7207 331.757 48.3555 330.463 49.625C327.948 51.9443 325.727 53.104 323.798 53.104ZM308.6 57.6816C308.991 57.877 309.54 57.9746 310.248 57.9746C311.835 57.9746 313.874 57.0835 316.364 55.3013C318.268 53.9341 319.965 52.3594 321.454 50.5771V50.4307C321.454 48.3555 322.235 46.793 323.798 45.7432C324.213 45.4502 324.604 45.2427 324.97 45.1206C326.142 42.6304 326.691 40.5918 326.618 39.0049C326.471 36.4902 325.543 35.2329 323.834 35.2329C320.954 35.2329 316.913 38.48 311.713 44.9741C308.368 49.1733 306.793 52.4448 306.989 54.7886C306.989 56.1313 307.526 57.0957 308.6 57.6816ZM340.534 56.1436C340.534 57.2666 341.01 57.8281 341.962 57.8281C342.938 57.8281 344 57.5352 345.148 56.9492C346.32 56.3633 347.504 55.6187 348.7 54.7153C349.921 53.812 351.117 52.811 352.289 51.7124L355.475 48.5264C356.452 47.5254 357.294 46.6221 358.002 45.8164L359.503 44.1318L360.236 44.7544C359.772 45.1694 359.149 45.8164 358.368 46.6953L355.731 49.625C349.774 55.9238 344.647 59.0732 340.351 59.0732C338.959 59.0732 337.836 58.7314 336.981 58.0479C336.151 57.3643 335.736 56.4487 335.736 55.3013C335.736 51.6636 341.034 46.2925 351.63 39.188C346.454 38.3335 342.877 37.4668 340.9 36.5879C339.289 39.9082 336.811 43.2896 333.466 46.7319C332.685 47.5376 332.208 47.9771 332.038 48.0503C331.842 48.1235 331.72 48.1846 331.671 48.2334C331.623 48.2578 331.586 48.1846 331.562 48.0137C331.537 47.8428 331.537 47.7207 331.562 47.6475C331.586 47.5498 331.635 47.4521 331.708 47.3545C332.855 46.0605 333.917 44.8154 334.894 43.6191C337.165 40.7871 338.837 38.2725 339.911 36.0752C339.032 35.5137 338.532 34.9155 338.41 34.2808C338.288 33.646 338.288 33.0601 338.41 32.5229C338.556 31.9614 338.776 31.4609 339.069 31.0215C339.704 30.0693 340.436 29.5933 341.266 29.5933C342.804 29.5933 343.573 30.1548 343.573 31.2778C343.573 31.8394 343.463 32.3154 343.244 32.7061L342.584 33.8413C342.145 34.4028 341.925 35.0498 341.925 35.7822C341.925 36.2217 342.853 36.6367 344.708 37.0273C346.588 37.418 347.919 37.6865 348.7 37.833C350.409 38.1504 351.764 38.3335 352.765 38.3823C353.449 38.4067 353.791 38.5898 353.791 38.9316C353.791 39.1514 353.388 39.5786 352.582 40.2134C351.801 40.8481 350.934 41.6172 349.982 42.5205C349.03 43.4238 348.102 44.376 347.199 45.377C346.295 46.3535 345.441 47.3545 344.635 48.3799C343.83 49.4053 343.122 50.394 342.511 51.3462C341.193 53.397 340.534 54.9961 340.534 56.1436ZM373.383 55.8506C371.845 56.8271 370.172 57.6328 368.366 58.2676C366.583 58.9023 364.887 59.2197 363.275 59.2197C361.664 59.2197 360.431 59.061 359.577 58.7437C358.747 58.4019 358.063 57.938 357.526 57.3521C355.231 54.8618 355.243 51.1875 357.562 46.3291C358.563 44.1807 360.077 42.2275 362.104 40.4697C364.13 38.6875 365.912 37.3569 367.45 36.478C370.429 34.769 373.224 33.9146 375.836 33.9146C378.424 33.9146 379.779 34.7202 379.901 36.3315C380.072 38.9438 376.898 41.7881 370.38 44.8643C367.987 45.9873 364.972 47.147 361.334 48.3433C359.894 50.687 359.174 52.6035 359.174 54.0928C359.174 55.5576 359.552 56.6074 360.309 57.2422C361.09 57.8525 362.213 58.1577 363.678 58.1577C365.167 58.1577 366.767 57.8403 368.476 57.2056C370.209 56.5708 371.82 55.7651 373.31 54.7886C374.823 53.812 376.19 52.75 377.411 51.6025C378.632 50.4551 379.706 49.3564 380.634 48.3066C381.586 47.2568 382.355 46.3535 382.941 45.5967C383.551 44.8154 383.966 44.3271 384.186 44.1318L384.955 44.7544C384.638 45.0229 384.149 45.5723 383.49 46.4023C382.855 47.2324 382.038 48.1846 381.037 49.2588C380.06 50.3086 378.925 51.4194 377.631 52.5913C376.361 53.7632 374.945 54.8496 373.383 55.8506ZM362.177 47.0615C369.55 44.4736 374.298 41.8979 376.422 39.3345C377.13 38.48 377.484 37.6499 377.484 36.8442C377.484 35.4771 376.85 34.7935 375.58 34.7935C373.334 34.7935 370.526 36.7588 367.157 40.6895C364.813 43.4238 363.153 45.5479 362.177 47.0615Z" fill="white"/>
</svg>
